# File produced by Open Asset Import Library (http://www.assimp.sf.net)
# (assimp v3.1.243586452)

mtllib SmallCrate.mtl

# vertex positions
v 133.944000 1.490202 121.428238
v 133.944000 1.490202 26.063496
v 206.302704 1.490202 26.063496
v 206.302704 1.490202 121.428238
v 200.673981 61.647537 115.799500
v 200.673981 61.647537 31.692230
v 139.572723 61.647537 31.692230
v 139.572723 61.647537 115.799500
v 140.096436 7.642641 116.084793
v 200.150269 7.642641 116.084793
v 200.150269 52.204025 116.084793
v 140.096436 52.204025 116.084793
v 200.959274 7.642641 115.275787
v 200.959274 7.642641 32.215939
v 200.959274 52.204025 32.215939
v 200.959274 52.204025 115.275787
v 200.150269 7.642641 31.406937
v 140.096436 7.642641 31.406937
v 140.096436 52.204025 31.406937
v 200.150269 52.204025 31.406937
v 139.287430 7.642641 32.215939
v 139.287430 7.642641 115.275787
v 139.287430 52.204025 115.275787
v 139.287430 52.204025 32.215939
v 133.944000 7.642641 115.275787
v 133.944000 7.642641 32.215939
v 133.944000 56.536728 121.428238
v 133.944000 52.204025 115.275787
v 133.944000 56.536728 26.063496
v 133.944000 52.204025 32.215939
v 206.302704 7.642641 32.215939
v 206.302704 7.642641 115.275787
v 206.302704 56.536728 26.063496
v 206.302704 52.204025 32.215939
v 206.302704 56.536728 121.428238
v 206.302704 52.204025 115.275787
v 200.150269 7.642641 121.428238
v 140.096436 7.642641 121.428238
v 200.150269 52.204025 121.428238
v 140.096436 52.204025 121.428238
v 140.096436 7.642641 26.063496
v 200.150269 7.642641 26.063496
v 140.096436 52.204025 26.063496
v 200.150269 52.204025 26.063496
v 204.482971 58.356468 119.608490
v 202.493713 58.356468 117.619232
v 137.752991 58.356468 117.619232
v 135.763733 58.356468 119.608490
v 204.482971 58.356468 27.883236
v 202.493713 58.356468 29.872494
v 135.763733 58.356468 27.883236
v 137.752991 58.356468 29.872494
v 202.493713 59.827805 117.619232
v 137.752991 59.827805 117.619232
v 202.493713 59.827805 29.872494
v 137.752991 59.827805 29.872494
v 201.418167 43.818077 119.446701
v 201.418167 5.887533 32.592033
v 204.410919 5.887533 32.592033
v 204.410919 43.818077 119.446701
v 201.418167 16.044079 28.156540
v 204.410919 16.044079 28.156540
v 201.418167 53.974625 115.011215
v 204.410919 53.974625 115.011215
v 136.095306 44.143738 120.334991
v 136.095306 54.300285 115.899490
v 136.095306 15.718414 27.553379
v 136.095306 5.561867 31.988869
v 139.088058 5.561867 31.988869
v 139.088043 44.143738 120.334991
v 139.088058 15.718414 27.553379
v 139.088043 54.300285 115.899490

# UV coordinates
vt 0.000500 0.796979
vt 0.000500 0.441506
vt 0.270218 0.441506
vt 0.270218 0.796979
vt 0.605601 0.677242
vt 0.290490 0.677242
vt 0.290490 0.448323
vt 0.605601 0.448323
vt 0.951129 0.487927
vt 0.951129 0.711779
vt 0.785026 0.711779
vt 0.785026 0.487927
vt 0.784011 0.084059
vt 0.784011 0.393666
vt 0.617908 0.393666
vt 0.617908 0.084059
vt 0.904707 0.761815
vt 0.904707 0.985667
vt 0.738604 0.985667
vt 0.738604 0.761815
vt 0.784011 0.404368
vt 0.784011 0.713975
vt 0.617908 0.713975
vt 0.617908 0.404368
vt 0.000500 0.227966
vt 0.356479 0.227966
vt 0.333513 0.250932
vt 0.023466 0.250932
vt 0.356479 0.433445
vt 0.333513 0.417271
vt 0.000500 0.433445
vt 0.023466 0.417271
vt 0.000500 0.014426
vt 0.356479 0.014426
vt 0.333513 0.037392
vt 0.023466 0.037392
vt 0.356479 0.219905
vt 0.333513 0.203732
vt 0.000500 0.219905
vt 0.023466 0.203732
vt 0.525065 0.999500
vt 0.525065 0.729320
vt 0.548037 0.752292
vt 0.548037 0.976527
vt 0.730603 0.729320
vt 0.714425 0.752292
vt 0.730603 0.999500
vt 0.714425 0.976527
vt 0.302241 0.999500
vt 0.302241 0.729320
vt 0.325213 0.752292
vt 0.325213 0.976527
vt 0.507779 0.729320
vt 0.491601 0.752292
vt 0.507779 0.999500
vt 0.491601 0.976527
vt 0.000500 0.975354
vt 0.224352 0.975354
vt 0.224352 0.995272
vt 0.000500 0.995272
vt 0.897787 0.084059
vt 0.897787 0.250162
vt 0.877869 0.250162
vt 0.877869 0.084059
vt 0.962456 0.749238
vt 0.738604 0.749238
vt 0.738604 0.729320
vt 0.962456 0.729320
vt 0.905722 0.927918
vt 0.905722 0.761815
vt 0.925640 0.761815
vt 0.925640 0.927918
vt 0.593279 0.726027
vt 0.283672 0.726027
vt 0.283672 0.706109
vt 0.593279 0.706109
vt 0.972062 0.761815
vt 0.972061 0.927918
vt 0.952144 0.927918
vt 0.952144 0.761815
vt 0.851365 0.084059
vt 0.851365 0.393666
vt 0.831447 0.393666
vt 0.831447 0.084059
vt 0.901080 0.250162
vt 0.901080 0.084059
vt 0.920998 0.084059
vt 0.920998 0.250162
vt 0.976382 0.038986
vt 0.752531 0.038986
vt 0.752531 0.019069
vt 0.976382 0.019069
vt 0.874576 0.084059
vt 0.874576 0.250162
vt 0.854658 0.250162
vt 0.854658 0.084059
vt 0.752531 0.051564
vt 0.976382 0.051564
vt 0.976382 0.071482
vt 0.752531 0.071482
vt 0.947501 0.250162
vt 0.947501 0.084059
vt 0.967419 0.084059
vt 0.967419 0.250162
vt 0.785026 0.393666
vt 0.785026 0.084059
vt 0.804943 0.084059
vt 0.804943 0.393666
vt 0.944209 0.084059
vt 0.944209 0.250162
vt 0.924291 0.250162
vt 0.924291 0.084059
vt 0.808237 0.393666
vt 0.808237 0.084059
vt 0.828154 0.084059
vt 0.828154 0.393666
vt 0.928933 0.927918
vt 0.928933 0.761815
vt 0.948851 0.761815
vt 0.948851 0.927918
vt 0.614099 0.084059
vt 0.606684 0.091474
vt 0.365362 0.091474
vt 0.357947 0.084059
vt 0.614099 0.425966
vt 0.606684 0.418551
vt 0.357947 0.425966
vt 0.365362 0.418551
vt 0.241822 0.966070
vt 0.241822 0.971555
vt 0.000500 0.971555
vt 0.000500 0.966070
vt 0.610749 0.687540
vt 0.610749 0.693025
vt 0.283672 0.693025
vt 0.283672 0.687540
vt 0.993853 0.000500
vt 0.993853 0.005984
vt 0.752531 0.005984
vt 0.752531 0.000500
vt 0.610749 0.696825
vt 0.610749 0.702309
vt 0.283672 0.702309
vt 0.283672 0.696825
vt 0.612419 0.441506
vt 0.612419 0.684059
vt 0.283672 0.684059
vt 0.283672 0.441506
vt 0.349686 0.440237
vt 0.007293 0.440237
vt 0.349686 0.226698
vt 0.007293 0.226698
vt 0.737398 0.736114
vt 0.737398 0.992705
vt 0.514574 0.736114
vt 0.514574 0.992705
vt 0.395084 0.060848
vt 0.748362 0.060848
vt 0.748362 0.072004
vt 0.395084 0.072004
vt 0.905722 0.970712
vt 0.947033 0.970712
vt 0.947033 0.981868
vt 0.905722 0.981868
vt 0.395084 0.046922
vt 0.748362 0.046922
vt 0.748362 0.058077
vt 0.395084 0.058077
vt 0.794310 0.395084
vt 0.835621 0.395084
vt 0.835621 0.406239
vt 0.794310 0.406239
vt 0.748362 0.041811
vt 0.395084 0.041811
vt 0.395084 0.000500
vt 0.748362 0.000500
vt 0.005142 0.000500
vt 0.393534 0.000500
vt 0.393534 0.012764
vt 0.005142 0.012764
vt 0.000500 0.798952
vt 0.292224 0.798952
vt 0.292224 0.877728
vt 0.000500 0.877728
vt 0.905722 0.938217
vt 0.956583 0.938217
vt 0.956583 0.939823
vt 0.905722 0.939823
vt 0.000500 0.882511
vt 0.292224 0.882511
vt 0.292224 0.961287
vt 0.000500 0.961287
vt 0.952696 0.952144
vt 0.952696 0.957637
vt 0.905722 0.957637
vt 0.905722 0.952144

# vertex normals
vn 0.000000 -1.000000 -0.000000
vn 0.000000 1.000000 0.000000
vn 0.000000 -0.000000 1.000000
vn 1.000000 0.000000 0.000000
vn 0.000000 0.000000 -1.000000
vn -1.000000 0.000000 0.000000
vn 0.000000 0.707107 0.707107
vn 0.707107 0.707107 0.000000
vn 0.000000 0.707107 -0.707107
vn -0.707107 0.707107 0.000000
vn 0.000000 -0.916422 0.400213
vn 0.000000 -0.400213 -0.916422
vn 0.000000 0.916422 -0.400213
vn 0.000000 0.400213 0.916422
vn 0.000000 0.400213 0.916422
vn 1.000000 -0.000000 0.000000
vn -1.000000 -0.000000 -0.000000
vn -1.000000 -0.000000 -0.000000
vn 0.000000 0.916422 -0.400213

# Mesh
g DD_SmallCrate00
usemtl DefaultMaterial
f 3/3/1 4/4/1 1/1/1 2/2/1
f 5/5/2 6/6/2 7/7/2 8/8/2
f 10/10/3 11/11/3 12/12/3 9/9/3
f 15/15/4 16/16/4 13/13/4 14/14/4
f 20/20/5 17/17/5 18/18/5 19/19/5
f 23/23/6 24/24/6 21/21/6 22/22/6
f 25/27/6 26/28/6 2/25/6 1/26/6
f 27/29/6 28/30/6 25/27/6 1/26/6
f 27/29/6 29/31/6 30/32/6 28/30/6
f 30/32/6 29/31/6 2/25/6 26/28/6
f 31/35/4 32/36/4 4/33/4 3/34/4
f 33/37/4 34/38/4 31/35/4 3/34/4
f 33/37/4 35/39/4 36/40/4 34/38/4
f 36/40/4 35/39/4 4/33/4 32/36/4
f 4/42/3 37/43/3 38/44/3 1/41/3
f 4/42/3 35/45/3 39/46/3 37/43/3
f 39/46/3 35/45/3 27/47/3 40/48/3
f 38/44/3 40/48/3 27/47/3 1/41/3
f 42/52/5 3/49/5 2/50/5 41/51/5
f 43/54/5 41/51/5 2/50/5 29/53/5
f 33/55/5 44/56/5 43/54/5 29/53/5
f 33/55/5 3/49/5 42/52/5 44/56/5
f 37/58/2 10/59/2 9/60/2 38/57/2
f 39/62/6 11/63/6 10/64/6 37/61/6
f 11/68/1 39/65/1 40/66/1 12/67/1
f 12/72/4 40/69/4 38/70/4 9/71/4
f 32/73/2 31/74/2 14/75/2 13/76/2
f 31/77/3 34/78/3 15/79/3 14/80/3
f 34/81/1 36/82/1 16/83/1 15/84/1
f 36/85/5 32/86/5 13/87/5 16/88/5
f 17/92/2 42/89/2 41/90/2 18/91/2
f 43/94/4 19/95/4 18/96/4 41/93/4
f 44/98/1 20/99/1 19/100/1 43/97/1
f 20/104/6 44/101/6 42/102/6 17/103/6
f 22/107/2 21/108/2 26/105/2 25/106/2
f 23/111/5 22/112/5 25/109/5 28/110/5
f 24/115/1 23/116/1 28/113/1 30/114/1
f 21/119/3 24/120/3 30/117/3 26/118/3
f 45/121/2 46/122/2 47/123/2 48/124/2
f 45/121/2 49/125/2 50/126/2 46/122/2
f 50/126/2 49/125/2 51/127/2 52/128/2
f 47/123/2 52/128/2 51/127/2 48/124/2
f 46/129/3 53/130/3 54/131/3 47/132/3
f 55/134/4 53/135/4 46/136/4 50/133/4
f 55/139/5 50/140/5 52/137/5 56/138/5
f 54/142/6 56/143/6 52/144/6 47/141/6
f 53/146/7 5/5/7 8/8/7 54/145/7
f 53/146/8 55/147/8 6/6/8 5/5/8
f 6/6/9 55/147/9 56/148/9 7/7/9
f 8/8/10 7/7/10 56/148/10 54/145/10
f 48/149/10 51/150/10 29/31/10 27/29/10
f 35/39/8 33/37/8 49/151/8 45/152/8
f 35/45/7 45/153/7 48/154/7 27/47/7
f 49/156/9 33/55/9 29/53/9 51/155/9
f 59/159/11 60/160/11 57/157/11 58/158/11
f 62/163/12 59/164/12 58/161/12 61/162/12
f 64/167/13 62/168/13 61/165/13 63/166/13
f 60/171/15 64/172/14 63/169/14 57/170/14
f 64/174/16 60/175/16 59/176/16 62/173/16
f 65/177/17 66/178/18 67/179/17 68/180/18
f 69/183/11 70/184/11 65/181/11 68/182/11
f 71/187/12 69/188/12 68/185/12 67/186/12
f 72/191/19 71/192/19 67/189/19 66/190/19
f 70/195/14 72/196/14 66/193/14 65/194/14
