# 3ds Max Wavefront OBJ Exporter v0.99 - (c)2007 guruware
# File Created: 21.02.2021 16:22:46

mtllib RockLowpoly.mtl

#
# object GeoSphere001
#

v  7.3270 30.2361 4.2922
v  45.5832 2.5372 12.5740
v  17.4217 12.4675 -26.6523
v  -20.8141 29.4043 -28.7742
v  -33.8161 9.0635 16.6577
v  13.2625 18.1789 36.2286
v  24.9140 9.6719 -11.1796
v  -7.6578 1.2075 -24.1656
v  -31.8081 11.0466 -2.7514
v  -3.2009 4.1227 35.3595
v  37.3692 6.9040 33.2608
v  -10.3165 -14.5948 13.3564
# 12 vertices

vn 0.1725 0.9818 0.0795
vn 0.8863 -0.4480 0.1178
vn 0.6300 -0.0163 -0.7764
vn 0.1725 0.9818 0.0795
vn 0.6300 -0.0163 -0.7764
vn -0.4708 0.5804 -0.6645
vn 0.1725 0.9818 0.0795
vn -0.4708 0.5804 -0.6645
vn -0.8830 -0.2068 0.4214
vn 0.1725 0.9818 0.0795
vn -0.8830 -0.2068 0.4214
vn 0.1039 0.6133 0.7830
vn 0.1725 0.9818 0.0795
vn 0.1039 0.6133 0.7830
vn 0.8863 -0.4480 0.1178
vn 0.8863 -0.4480 0.1178
vn 0.8743 -0.0591 0.4818
vn 0.0342 -0.9878 -0.1518
vn 0.6300 -0.0163 -0.7764
vn 0.0342 -0.9878 -0.1518
vn -0.1611 -0.6887 -0.7069
vn -0.4708 0.5804 -0.6645
vn -0.1611 -0.6887 -0.7069
vn -0.9553 -0.2292 -0.1865
vn -0.8830 -0.2068 0.4214
vn -0.9553 -0.2292 -0.1865
vn -0.3297 -0.2722 0.9040
vn 0.1039 0.6133 0.7830
vn -0.3297 -0.2722 0.9040
vn 0.8743 -0.0591 0.4818
vn 0.0342 -0.9878 -0.1518
vn 0.6300 -0.0163 -0.7764
vn 0.8863 -0.4480 0.1178
vn -0.1611 -0.6887 -0.7069
vn -0.4708 0.5804 -0.6645
vn 0.6300 -0.0163 -0.7764
vn -0.9553 -0.2292 -0.1865
vn -0.8830 -0.2068 0.4214
vn -0.4708 0.5804 -0.6645
vn -0.3297 -0.2722 0.9040
vn 0.1039 0.6133 0.7830
vn -0.8830 -0.2068 0.4214
vn 0.8743 -0.0591 0.4818
vn 0.8863 -0.4480 0.1178
vn 0.1039 0.6133 0.7830
vn -0.2926 -0.9408 0.1713
vn -0.1611 -0.6887 -0.7069
vn 0.0342 -0.9878 -0.1518
vn -0.2926 -0.9408 0.1713
vn -0.9553 -0.2292 -0.1865
vn -0.1611 -0.6887 -0.7069
vn -0.2926 -0.9408 0.1713
vn -0.3297 -0.2722 0.9040
vn -0.9553 -0.2292 -0.1865
vn -0.2926 -0.9408 0.1713
vn 0.8743 -0.0591 0.4818
vn -0.3297 -0.2722 0.9040
vn -0.2926 -0.9408 0.1713
vn 0.0342 -0.9878 -0.1518
vn 0.8743 -0.0591 0.4818
# 60 vertex normals

vt 0.4000 1.0000 39.3701
vt 0.5000 0.6476 39.3701
vt 0.7000 0.6476 39.3701
vt 0.9000 0.6476 39.3701
vt 0.1000 0.6476 39.3701
vt 0.3000 0.6476 39.3701
vt 0.6000 0.3524 39.3701
vt 0.8000 0.3524 39.3701
vt 0.0000 0.3524 39.3701
vt 0.2000 0.3524 39.3701
vt 0.4000 0.3524 39.3701
vt 0.5000 0.0000 39.3701
vt 0.6000 1.0000 39.3701
vt 0.8000 1.0000 39.3701
vt 0.0000 1.0000 39.3701
vt -0.1000 0.6476 39.3701
vt 0.2000 1.0000 39.3701
vt -0.1000 0.6476 39.3701
vt -0.2000 0.3524 39.3701
vt -0.1000 0.6476 39.3701
vt 0.7000 0.0000 39.3701
vt -0.1000 0.0000 39.3701
vt -0.2000 0.3524 39.3701
vt 0.1000 0.0000 39.3701
vt 0.3000 0.0000 39.3701
# 25 texture coords

o GeoSphere001
g GeoSphere001
usemtl wire_085028177
s off
f 1/13/1 2/2/2 3/3/3 
f 1/14/4 3/3/5 4/4/6 
f 1/15/7 4/16/8 5/5/9 
f 1/17/10 5/5/11 6/6/12 
f 1/1/13 6/6/14 2/2/15 
f 2/2/16 11/11/17 7/7/18 
f 3/3/19 7/7/20 8/8/21 
f 4/18/22 8/19/23 9/9/24 
f 5/5/25 9/9/26 10/10/27 
f 6/6/28 10/10/29 11/11/30 
f 7/7/31 3/3/32 2/2/33 
f 8/8/34 4/4/35 3/3/36 
f 9/9/37 5/5/38 4/20/39 
f 10/10/40 6/6/41 5/5/42 
f 11/11/43 2/2/44 6/6/45 
f 12/21/46 8/8/47 7/7/48 
f 12/22/49 9/9/50 8/23/51 
f 12/24/52 10/10/53 9/9/54 
f 12/25/55 11/11/56 10/10/57 
f 12/12/58 7/7/59 11/11/60 
# 0 polygons - 20 triangles

#
# object GeoSphere002
#

v  13.6703 29.6316 -87.4735
v  60.6380 12.4358 -86.7745
v  8.5003 20.8929 -115.2192
v  -37.3066 17.1663 -99.2682
v  -35.2451 17.4645 -61.2863
v  13.7589 15.1286 -42.7920
v  29.0035 -14.8067 -100.1646
v  -0.9614 7.7911 -100.1535
v  -42.2154 -5.4193 -63.2568
v  -3.1353 3.9627 -43.7939
v  20.8380 -14.2904 -54.0931
v  -14.5532 6.8487 -86.6831
# 12 vertices

vn 0.1052 0.9943 -0.0196
vn 0.9786 0.1829 -0.0943
vn -0.0433 0.3471 -0.9368
vn 0.1052 0.9943 -0.0196
vn -0.0433 0.3471 -0.9368
vn -0.7237 0.2026 -0.6597
vn 0.1052 0.9943 -0.0196
vn -0.7237 0.2026 -0.6597
vn -0.6122 0.6279 0.4805
vn 0.1052 0.9943 -0.0196
vn -0.6122 0.6279 0.4805
vn 0.2512 0.4525 0.8556
vn 0.1052 0.9943 -0.0196
vn 0.2512 0.4525 0.8556
vn 0.9786 0.1829 -0.0943
vn 0.9786 0.1829 -0.0943
vn 0.1675 -0.8262 0.5379
vn 0.1938 -0.8192 -0.5397
vn -0.0433 0.3471 -0.9368
vn 0.1938 -0.8192 -0.5397
vn -0.3431 -0.6874 -0.6401
vn -0.7237 0.2026 -0.6597
vn -0.3431 -0.6874 -0.6401
vn -0.6781 -0.6839 0.2692
vn -0.6122 0.6279 0.4805
vn -0.6781 -0.6839 0.2692
vn -0.3185 -0.3890 0.8644
vn 0.2512 0.4525 0.8556
vn -0.3185 -0.3890 0.8644
vn 0.1675 -0.8262 0.5379
vn 0.1938 -0.8192 -0.5397
vn -0.0433 0.3471 -0.9368
vn 0.9786 0.1829 -0.0943
vn -0.3431 -0.6874 -0.6401
vn -0.7237 0.2026 -0.6597
vn -0.0433 0.3471 -0.9368
vn -0.6781 -0.6839 0.2692
vn -0.6122 0.6279 0.4805
vn -0.7237 0.2026 -0.6597
vn -0.3185 -0.3890 0.8644
vn 0.2512 0.4525 0.8556
vn -0.6122 0.6279 0.4805
vn 0.1675 -0.8262 0.5379
vn 0.9786 0.1829 -0.0943
vn 0.2512 0.4525 0.8556
vn 0.2850 -0.8948 0.3436
vn -0.3431 -0.6874 -0.6401
vn 0.1938 -0.8192 -0.5397
vn 0.2850 -0.8948 0.3436
vn -0.6781 -0.6839 0.2692
vn -0.3431 -0.6874 -0.6401
vn 0.2850 -0.8948 0.3436
vn -0.3185 -0.3890 0.8644
vn -0.6781 -0.6839 0.2692
vn 0.2850 -0.8948 0.3436
vn 0.1675 -0.8262 0.5379
vn -0.3185 -0.3890 0.8644
vn 0.2850 -0.8948 0.3436
vn 0.1938 -0.8192 -0.5397
vn 0.1675 -0.8262 0.5379
# 60 vertex normals

vt 0.4000 1.0000 39.3701
vt 0.5000 0.6476 39.3701
vt 0.7000 0.6476 39.3701
vt 0.9000 0.6476 39.3701
vt 0.1000 0.6476 39.3701
vt 0.3000 0.6476 39.3701
vt 0.6000 0.3524 39.3701
vt 0.8000 0.3524 39.3701
vt 0.0000 0.3524 39.3701
vt 0.2000 0.3524 39.3701
vt 0.4000 0.3524 39.3701
vt 0.5000 0.0000 39.3701
vt 0.6000 1.0000 39.3701
vt 0.8000 1.0000 39.3701
vt 0.0000 1.0000 39.3701
vt -0.1000 0.6476 39.3701
vt 0.2000 1.0000 39.3701
vt -0.1000 0.6476 39.3701
vt -0.2000 0.3524 39.3701
vt -0.1000 0.6476 39.3701
vt 0.7000 0.0000 39.3701
vt -0.1000 0.0000 39.3701
vt -0.2000 0.3524 39.3701
vt 0.1000 0.0000 39.3701
vt 0.3000 0.0000 39.3701
# 25 texture coords

o GeoSphere002
g GeoSphere002
usemtl wire_085028177
s off
f 13/38/61 14/27/62 15/28/63 
f 13/39/64 15/28/65 16/29/66 
f 13/40/67 16/41/68 17/30/69 
f 13/42/70 17/30/71 18/31/72 
f 13/26/73 18/31/74 14/27/75 
f 14/27/76 23/36/77 19/32/78 
f 15/28/79 19/32/80 20/33/81 
f 16/43/82 20/44/83 21/34/84 
f 17/30/85 21/34/86 22/35/87 
f 18/31/88 22/35/89 23/36/90 
f 19/32/91 15/28/92 14/27/93 
f 20/33/94 16/29/95 15/28/96 
f 21/34/97 17/30/98 16/45/99 
f 22/35/100 18/31/101 17/30/102 
f 23/36/103 14/27/104 18/31/105 
f 24/46/106 20/33/107 19/32/108 
f 24/47/109 21/34/110 20/48/111 
f 24/49/112 22/35/113 21/34/114 
f 24/50/115 23/36/116 22/35/117 
f 24/37/118 19/32/119 23/36/120 
# 0 polygons - 20 triangles

#
# object GeoSphere003
#

v  -11.5060 -15.4142 -143.4309
v  9.5092 18.9119 -193.3328
v  25.9107 11.4607 -129.5374
v  -38.5115 31.8850 -139.6046
v  -28.6192 13.3529 -176.4012
v  39.0905 17.8039 -156.3638
v  -40.5871 -3.9941 -151.9335
v  15.3311 0.0672 -184.7105
# 8 vertices

vn 0.3832 -0.6736 -0.6320
vn 0.0875 0.5086 -0.8566
vn 0.9628 0.2700 -0.0143
vn 0.9628 0.2700 -0.0143
vn -0.5380 0.2228 -0.8130
vn -0.6054 0.6667 0.4347
vn -0.5380 0.2228 -0.8130
vn 0.3832 -0.6736 -0.6320
vn -0.8088 -0.5733 0.1307
vn -0.1120 -0.8831 0.4556
vn 0.5909 -0.0086 0.8067
vn -0.8088 -0.5733 0.1307
vn 0.9628 0.2700 -0.0143
vn 0.0875 0.5086 -0.8566
vn -0.5380 0.2228 -0.8130
vn 0.0875 0.5086 -0.8566
vn 0.3832 -0.6736 -0.6320
vn -0.5380 0.2228 -0.8130
vn -0.6054 0.6667 0.4347
vn 0.5909 -0.0086 0.8067
vn 0.9628 0.2700 -0.0143
vn -0.1120 -0.8831 0.4556
vn 0.9628 0.2700 -0.0143
vn 0.5909 -0.0086 0.8067
vn -0.6054 0.6667 0.4347
vn -0.8088 -0.5733 0.1307
vn 0.5909 -0.0086 0.8067
vn -0.8088 -0.5733 0.1307
vn -0.6054 0.6667 0.4347
vn -0.5380 0.2228 -0.8130
vn -0.1120 -0.8831 0.4556
vn -0.8088 -0.5733 0.1307
vn 0.3832 -0.6736 -0.6320
vn 0.3832 -0.6736 -0.6320
vn 0.9628 0.2700 -0.0143
vn -0.1120 -0.8831 0.4556
# 36 vertex normals

o GeoSphere003
g GeoSphere003
usemtl wire_085028177
s off
f 32//121 26//122 30//123 
f 30//124 29//125 28//126 
f 29//127 32//128 31//129 
f 25//130 27//131 31//132 
f 30//133 26//134 29//135 
f 26//136 32//137 29//138 
f 28//139 27//140 30//141 
f 25//142 30//143 27//144 
f 28//145 31//146 27//147 
f 31//148 28//149 29//150 
f 25//151 31//152 32//153 
f 32//154 30//155 25//156 
# 0 polygons - 12 triangles

#
# object GeoSphere004
#

v  10.7404 27.9792 -239.7446
v  39.0523 11.0427 -235.0898
v  14.3773 21.7529 -269.2095
v  -21.7241 28.2250 -267.1684
v  -44.6264 5.8088 -227.9124
v  15.7869 13.8330 -201.9146
v  25.8414 11.7296 -247.0487
v  -8.3947 7.3348 -270.4978
v  -35.6129 0.5006 -228.9919
v  -5.9027 4.4859 -199.3755
v  15.5026 -2.6530 -202.7207
v  -10.7041 -13.7177 -222.1087
# 12 vertices

vn 0.1528 0.9778 0.1432
vn 0.9893 -0.1082 -0.0981
vn 0.5609 0.2860 -0.7769
vn 0.1528 0.9778 0.1432
vn 0.5609 0.2860 -0.7769
vn -0.5738 0.6045 -0.5526
vn 0.1528 0.9778 0.1432
vn -0.5738 0.6045 -0.5526
vn -0.9867 -0.0233 0.1610
vn 0.1528 0.9778 0.1432
vn -0.9867 -0.0233 0.1610
vn 0.3362 0.5496 0.7648
vn 0.1528 0.9778 0.1432
vn 0.3362 0.5496 0.7648
vn 0.9893 -0.1082 -0.0981
vn 0.9893 -0.1082 -0.0981
vn 0.4707 -0.6311 0.6165
vn 0.4088 -0.8034 -0.4329
vn 0.5609 0.2860 -0.7769
vn 0.4088 -0.8034 -0.4329
vn -0.1255 -0.5555 -0.8220
vn -0.5738 0.6045 -0.5526
vn -0.1255 -0.5555 -0.8220
vn -0.5360 -0.8422 -0.0589
vn -0.9867 -0.0233 0.1610
vn -0.5360 -0.8422 -0.0589
vn -0.3723 0.0534 0.9266
vn 0.3362 0.5496 0.7648
vn -0.3723 0.0534 0.9266
vn 0.4707 -0.6311 0.6165
vn 0.4088 -0.8034 -0.4329
vn 0.5609 0.2860 -0.7769
vn 0.9893 -0.1082 -0.0981
vn -0.1255 -0.5555 -0.8220
vn -0.5738 0.6045 -0.5526
vn 0.5609 0.2860 -0.7769
vn -0.5360 -0.8422 -0.0589
vn -0.9867 -0.0233 0.1610
vn -0.5738 0.6045 -0.5526
vn -0.3723 0.0534 0.9266
vn 0.3362 0.5496 0.7648
vn -0.9867 -0.0233 0.1610
vn 0.4707 -0.6311 0.6165
vn 0.9893 -0.1082 -0.0981
vn 0.3362 0.5496 0.7648
vn -0.1257 -0.9860 0.1096
vn -0.1255 -0.5555 -0.8220
vn 0.4088 -0.8034 -0.4329
vn -0.1257 -0.9860 0.1096
vn -0.5360 -0.8422 -0.0589
vn -0.1255 -0.5555 -0.8220
vn -0.1257 -0.9860 0.1096
vn -0.3723 0.0534 0.9266
vn -0.5360 -0.8422 -0.0589
vn -0.1257 -0.9860 0.1096
vn 0.4707 -0.6311 0.6165
vn -0.3723 0.0534 0.9266
vn -0.1257 -0.9860 0.1096
vn 0.4088 -0.8034 -0.4329
vn 0.4707 -0.6311 0.6165
# 60 vertex normals

vt 0.4000 1.0000 39.3701
vt 0.5000 0.6476 39.3701
vt 0.7000 0.6476 39.3701
vt 0.9000 0.6476 39.3701
vt 0.1000 0.6476 39.3701
vt 0.3000 0.6476 39.3701
vt 0.6000 0.3524 39.3701
vt 0.8000 0.3524 39.3701
vt 0.0000 0.3524 39.3701
vt 0.2000 0.3524 39.3701
vt 0.4000 0.3524 39.3701
vt 0.5000 0.0000 39.3701
vt 0.6000 1.0000 39.3701
vt 0.8000 1.0000 39.3701
vt 0.0000 1.0000 39.3701
vt -0.1000 0.6476 39.3701
vt 0.2000 1.0000 39.3701
vt -0.1000 0.6476 39.3701
vt -0.2000 0.3524 39.3701
vt -0.1000 0.6476 39.3701
vt 0.7000 0.0000 39.3701
vt -0.1000 0.0000 39.3701
vt -0.2000 0.3524 39.3701
vt 0.1000 0.0000 39.3701
vt 0.3000 0.0000 39.3701
# 25 texture coords

o GeoSphere004
g GeoSphere004
usemtl wire_085028177
s off
f 33/63/157 34/52/158 35/53/159 
f 33/64/160 35/53/161 36/54/162 
f 33/65/163 36/66/164 37/55/165 
f 33/67/166 37/55/167 38/56/168 
f 33/51/169 38/56/170 34/52/171 
f 34/52/172 43/61/173 39/57/174 
f 35/53/175 39/57/176 40/58/177 
f 36/68/178 40/69/179 41/59/180 
f 37/55/181 41/59/182 42/60/183 
f 38/56/184 42/60/185 43/61/186 
f 39/57/187 35/53/188 34/52/189 
f 40/58/190 36/54/191 35/53/192 
f 41/59/193 37/55/194 36/70/195 
f 42/60/196 38/56/197 37/55/198 
f 43/61/199 34/52/200 38/56/201 
f 44/71/202 40/58/203 39/57/204 
f 44/72/205 41/59/206 40/73/207 
f 44/74/208 42/60/209 41/59/210 
f 44/75/211 43/61/212 42/60/213 
f 44/62/214 39/57/215 43/61/216 
# 0 polygons - 20 triangles

